<svg xmlns="http://www.w3.org/2000/svg" viewBox="0 0 37.37 12.31"><defs><style>.a{fill:#fff;}</style></defs><title>free-call</title><path class="a" d="M982.21,1495.3c0-.87.46-1.12,1.07-1.13a5.67,5.67,0,0,1,1.53.17v.66c-.35,0-1.13-.06-1.32-.06s-.52,0-.52.43v.21c0,.35.12.43.42.43H984c.77,0,.93.67.93,1.16v.29c0,1-.56,1.18-1.09,1.18a4.6,4.6,0,0,1-1.53-.18v-.66c.22,0,.88.07,1.38.07.23,0,.48,0,.48-.38v-.24c0-.25-.06-.41-.35-.41h-.61c-1,0-1-.78-1-1.16Z" transform="translate(-982.13 -1493.9)"/><path class="a" d="M986.59,1495.39c.82,0,1.21.1,1.21,1.16,0,.56-.28.79-.8.79h-.91c0,.58.19.61.6.61a5.26,5.26,0,0,0,1.06-.06v.57a4.49,4.49,0,0,1-1.47.16c-.73,0-.95-.47-.95-1.63C985.33,1495.62,985.68,1495.39,986.59,1495.39Zm.21,1.35a.22.22,0,0,0,.24-.24c0-.4,0-.47-.41-.47s-.55,0-.54.71Z" transform="translate(-982.13 -1493.9)"/><path class="a" d="M988.21,1495.41h.64l.11.4a1.17,1.17,0,0,1,.83-.43.78.78,0,0,1,.32,0v.81l-.42,0a.76.76,0,0,0-.73.35v2h-.75Z" transform="translate(-982.13 -1493.9)"/><path class="a" d="M991.1,1495.41l.63,2.2.65-2.2h.8l-1,3.18h-.84l-1-3.18Z" transform="translate(-982.13 -1493.9)"/><path class="a" d="M993.46,1494.41a.13.13,0,0,1,.13-.15h.57c.08,0,.12.06.12.15v.53c0,.09,0,.13-.12.13h-.57a.13.13,0,0,1-.13-.13Zm0,1h.76v3.18h-.76Z" transform="translate(-982.13 -1493.9)"/><path class="a" d="M995.63,1495.38a4.17,4.17,0,0,1,1.32.19v.52s-.51,0-1,0-.52,0-.52,1,.13.93.52.93,1-.06,1-.06v.53a2.65,2.65,0,0,1-1.36.2c-.53,0-.94-.31-.94-1.62S995.08,1495.38,995.63,1495.38Z" transform="translate(-982.13 -1493.9)"/><path class="a" d="M998.5,1495.39c.83,0,1.22.1,1.22,1.16,0,.56-.28.79-.8.79H998c0,.58.2.61.61.61a5.12,5.12,0,0,0,1-.06v.57a4.46,4.46,0,0,1-1.47.16c-.73,0-.94-.47-.94-1.63C997.25,1495.62,997.59,1495.39,998.5,1495.39Zm.22,1.35a.22.22,0,0,0,.24-.24c0-.4-.05-.47-.41-.47s-.55,0-.55.71Z" transform="translate(-982.13 -1493.9)"/><path class="a" d="M1001.82,1496.38l.37-.36-.27-.45a.85.85,0,0,1,.43-1.35,3.12,3.12,0,0,1,1.49.12v.61H1003c-.41,0-.46.17-.19.58l.91,1.39.66-.69.26.36-.32.64-.2.27.74,1.09h-.89l-.39-.57-.35.35a1.06,1.06,0,0,1-1.6-.27A1.33,1.33,0,0,1,1001.82,1496.38Zm1,1.33.28-.29-.55-.8-.28.27a.51.51,0,0,0-.09.74C1002.35,1497.83,1002.61,1498,1002.84,1497.71Z" transform="translate(-982.13 -1493.9)"/><path class="a" d="M1006.41,1497.48a.78.78,0,0,1,.84-.87h.84v-.2c0-.34-.15-.4-.39-.4s-1,0-1.2.07v-.52a3.22,3.22,0,0,1,1.31-.21c.62,0,1,.23,1,1v2.22h-.6l-.16-.35a1.24,1.24,0,0,1-.87.39.8.8,0,0,1-.81-.85Zm1,.48a1.34,1.34,0,0,0,.66-.25v-.58l-.7.06c-.2,0-.23.18-.23.32v.15C1007.16,1497.93,1007.29,1498,1007.43,1498Z" transform="translate(-982.13 -1493.9)"/><path class="a" d="M1009.29,1495.41h.62l.14.32a1.42,1.42,0,0,1,.86-.36c.71,0,.94.66.94,1.62s-.14,1.65-.94,1.65a2.23,2.23,0,0,1-.87-.2v1.77h-.75Zm1.43,2.57c.24,0,.38-.15.38-1s-.14-.93-.38-.93a1.11,1.11,0,0,0-.67.2v1.57A1.54,1.54,0,0,0,1010.72,1498Z" transform="translate(-982.13 -1493.9)"/><path class="a" d="M1012.29,1495.41h.63l.13.32a1.45,1.45,0,0,1,.87-.36c.7,0,.93.66.93,1.62s-.14,1.65-.93,1.65a2.16,2.16,0,0,1-.87-.2v1.77h-.76Zm1.43,2.57c.24,0,.38-.15.38-1s-.14-.93-.38-.93a1.11,1.11,0,0,0-.67.2v1.57A1.57,1.57,0,0,0,1013.72,1498Z" transform="translate(-982.13 -1493.9)"/><path class="a" d="M1016.51,1495.39c.83,0,1.21.1,1.21,1.16,0,.56-.28.79-.8.79H1016c0,.58.2.61.6.61a5.26,5.26,0,0,0,1.06-.06v.57a4.49,4.49,0,0,1-1.47.16c-.73,0-1-.47-1-1.63C1015.25,1495.62,1015.6,1495.39,1016.51,1495.39Zm.22,1.35a.22.22,0,0,0,.24-.24c0-.4-.06-.47-.42-.47s-.55,0-.54.71Z" transform="translate(-982.13 -1493.9)"/><path class="a" d="M1018.13,1493.9h.76v3.43c0,.46.1.56.25.62a3.58,3.58,0,0,0,.36.13v.51h-.63c-.47,0-.74-.28-.74-1.13Z" transform="translate(-982.13 -1493.9)"/><path class="a" d="M982.47,1503.41a1.11,1.11,0,0,1-.32-.88c0-.76.35-1.13,1-1.13h1.75v.5l-.32.11a1.33,1.33,0,0,1,.11.62.94.94,0,0,1-1,1.07H983c-.08,0-.22,0-.22.14s.1.16.22.16h.88c.52,0,.85.3.85.94v.35a.82.82,0,0,1-.9.92h-.81a.83.83,0,0,1-.89-.92v-.41l.25-.29a.7.7,0,0,1-.28-.61A.56.56,0,0,1,982.47,1503.41Zm.78-.39h.31c.28,0,.37-.2.36-.49s-.1-.46-.37-.46h-.29c-.3,0-.35.22-.35.46S983,1503,983.25,1503Zm0,2.52h.44c.28,0,.31-.15.31-.34V1505c0-.18-.07-.29-.28-.29h-.59l-.22,0v.53C982.92,1505.5,983.07,1505.54,983.26,1505.54Z" transform="translate(-982.13 -1493.9)"/><path class="a" d="M985.21,1501.41h.64l.12.4a1.16,1.16,0,0,1,.82-.43,1,1,0,0,1,.32,0v.82l-.41,0a.75.75,0,0,0-.73.35v2h-.76Z" transform="translate(-982.13 -1493.9)"/><path class="a" d="M987.38,1503.48a.78.78,0,0,1,.84-.87h.84a1.47,1.47,0,0,0,0-.21c0-.34-.14-.39-.38-.39s-1,0-1.21.07v-.52a3.25,3.25,0,0,1,1.31-.21c.62,0,1,.23,1,1v2.22h-.6l-.16-.35a1.22,1.22,0,0,1-.87.39.81.81,0,0,1-.81-.85Zm1,.47a1.37,1.37,0,0,0,.66-.24v-.59l-.69.06c-.2,0-.23.19-.23.33v.15C988.14,1503.93,988.27,1504,988.4,1504Z" transform="translate(-982.13 -1493.9)"/><path class="a" d="M990.1,1501.58l.46-.18.13-.88h.63v.88H992v.64h-.64v1.28c0,.47.1.57.25.63a3.58,3.58,0,0,0,.36.13v.51h-.66c-.43,0-.71-.29-.71-1.14V1502h-.46Z" transform="translate(-982.13 -1493.9)"/><path class="a" d="M992.28,1501.41H993v2.13c0,.32.12.43.31.43a1,1,0,0,0,.7-.27v-2.29h.75v3.18h-.6l-.15-.34a1.47,1.47,0,0,1-.91.4c-.67,0-.86-.51-.86-1.12Z" transform="translate(-982.13 -1493.9)"/><path class="a" d="M995.25,1500.4c0-.09,0-.15.13-.15H996c.08,0,.12.07.12.15v.54a.11.11,0,0,1-.12.13h-.57a.12.12,0,0,1-.13-.13Zm0,1H996v3.18h-.75Z" transform="translate(-982.13 -1493.9)"/><path class="a" d="M996.35,1501.58l.47-.18.12-.88h.63v.88h.64v.64h-.64v1.28c0,.47.1.57.25.63a3.58,3.58,0,0,0,.36.13v.51h-.66c-.42,0-.7-.29-.7-1.14V1502h-.47Z" transform="translate(-982.13 -1493.9)"/><path class="a" d="M998.49,1502.24c0-.5.19-.86.75-.86a4.47,4.47,0,0,1,1.53.16v.53h-1.3c-.2,0-.22.07-.22.22v.14c0,.2.09.21.22.21h.68c.55,0,.76.36.76.82v.33c0,.65-.36.83-.7.83a4.59,4.59,0,0,1-1.6-.17v-.52H1000s.18,0,.18-.21v-.15c0-.13,0-.2-.18-.2h-.67c-.51,0-.81-.24-.81-.86Z" transform="translate(-982.13 -1493.9)"/></svg>