<svg xmlns="http://www.w3.org/2000/svg" viewBox="0 0 51.12 12.05"><defs><style>.a{fill:#fff;}</style></defs><title>paid-15ct-per-call</title><path class="a" d="M974.91,1495.55c0-.87.47-1.12,1.07-1.13a5.67,5.67,0,0,1,1.53.17v.66c-.34,0-1.12-.06-1.32-.06s-.52,0-.52.43v.21c0,.35.12.42.43.42h.62c.78,0,.93.68.93,1.17v.29c0,1-.55,1.18-1.09,1.18a4.81,4.81,0,0,1-1.52-.18v-.66c.21,0,.87.07,1.37.07.23,0,.49,0,.49-.38v-.24c0-.25-.07-.41-.36-.41h-.61c-.95,0-1-.78-1-1.16Z" transform="translate(-974.83 -1494.42)"/><path class="a" d="M979.29,1495.64c.83,0,1.21.1,1.21,1.16a.69.69,0,0,1-.79.79h-.92c0,.58.2.61.61.61a6,6,0,0,0,1.05-.06v.57a4.46,4.46,0,0,1-1.47.16c-.73,0-.94-.47-.94-1.63C978,1495.87,978.38,1495.64,979.29,1495.64Zm.22,1.35a.22.22,0,0,0,.24-.24c0-.4,0-.47-.42-.47s-.54,0-.54.71Z" transform="translate(-974.83 -1494.42)"/><path class="a" d="M980.91,1495.66h.64l.12.4a1.16,1.16,0,0,1,.82-.43,1,1,0,0,1,.32,0v.82l-.41,0a.73.73,0,0,0-.73.35v2h-.76Z" transform="translate(-974.83 -1494.42)"/><path class="a" d="M983.81,1495.66l.62,2.2.65-2.2h.81l-1,3.18H984l-1-3.18Z" transform="translate(-974.83 -1494.42)"/><path class="a" d="M986.17,1494.66c0-.09,0-.16.13-.16h.56c.09,0,.13.07.13.16v.53a.12.12,0,0,1-.13.13h-.56a.12.12,0,0,1-.13-.13Zm0,1H987v3.18h-.76Z" transform="translate(-974.83 -1494.42)"/><path class="a" d="M988.34,1495.63a4.17,4.17,0,0,1,1.32.19v.52s-.52,0-1,0-.51,0-.51,1,.12.94.51.94,1-.06,1-.06v.53a2.65,2.65,0,0,1-1.36.2c-.54,0-1-.31-1-1.62S987.79,1495.63,988.34,1495.63Z" transform="translate(-974.83 -1494.42)"/><path class="a" d="M991.21,1495.64c.83,0,1.21.1,1.21,1.16,0,.56-.28.79-.8.79h-.91c0,.58.19.61.6.61a6.11,6.11,0,0,0,1.06-.06v.57a4.49,4.49,0,0,1-1.47.16c-.73,0-.95-.47-.95-1.63C990,1495.87,990.3,1495.64,991.21,1495.64Zm.22,1.35a.21.21,0,0,0,.23-.24c0-.4,0-.47-.41-.47s-.55,0-.54.71Z" transform="translate(-974.83 -1494.42)"/><path class="a" d="M974.83,1502.35h.8v-.89h.63v.89h.81v.71h-.81v.89h-.63v-.89h-.8Z" transform="translate(-974.83 -1494.42)"/><path class="a" d="M978.85,1501.66h.62l.13.32a1.45,1.45,0,0,1,.87-.36c.71,0,.94.66.94,1.62s-.14,1.65-.94,1.65a2.05,2.05,0,0,1-.87-.21v1.78h-.75Zm1.43,2.57c.24,0,.37-.15.37-1s-.13-.93-.37-.93a1.14,1.14,0,0,0-.68.2v1.57A1.59,1.59,0,0,0,980.28,1504.23Z" transform="translate(-974.83 -1494.42)"/><path class="a" d="M981.85,1501.66h.64l.12.4a1.15,1.15,0,0,1,.82-.43,1,1,0,0,1,.32,0v.81h-.41a.73.73,0,0,0-.73.35v2h-.76Z" transform="translate(-974.83 -1494.42)"/><path class="a" d="M984.06,1500.65a.13.13,0,0,1,.13-.15h.57c.08,0,.12.07.12.15v.53c0,.09,0,.14-.12.14h-.57a.13.13,0,0,1-.13-.14Zm0,1h.76v3.18h-.76Z" transform="translate(-974.83 -1494.42)"/><path class="a" d="M986.17,1503.25l-1-1.59h.92l.52.95.54-.95h.91l-1,1.6,1,1.58h-.87l-.53-.94-.53.94h-.92Z" transform="translate(-974.83 -1494.42)"/><path class="a" d="M989.68,1503.73a.78.78,0,0,1,.84-.87h.85v-.21c0-.34-.15-.39-.39-.39s-1,0-1.2.07v-.52a3.22,3.22,0,0,1,1.31-.21c.61,0,1,.23,1,1v2.22h-.59l-.16-.35a1.25,1.25,0,0,1-.88.39.81.81,0,0,1-.81-.85Zm1,.47a1.43,1.43,0,0,0,.66-.24v-.59l-.7.06c-.2,0-.23.19-.23.33v.15C990.44,1504.18,990.57,1504.2,990.71,1504.2Z" transform="translate(-974.83 -1494.42)"/><path class="a" d="M992.57,1501.66h.62l.13.32a1.45,1.45,0,0,1,.87-.36c.71,0,.94.66.94,1.62s-.14,1.65-.94,1.65a2.05,2.05,0,0,1-.87-.21v1.78h-.75Zm1.43,2.57c.24,0,.37-.15.37-1s-.13-.93-.37-.93a1.14,1.14,0,0,0-.68.2v1.57A1.62,1.62,0,0,0,994,1504.23Z" transform="translate(-974.83 -1494.42)"/><path class="a" d="M995.57,1501.66h.62l.14.32a1.42,1.42,0,0,1,.86-.36c.71,0,.94.66.94,1.62s-.14,1.65-.94,1.65a2.09,2.09,0,0,1-.87-.21v1.78h-.75Zm1.43,2.57c.24,0,.37-.15.37-1s-.13-.93-.37-.93a1.09,1.09,0,0,0-.67.2v1.57A1.54,1.54,0,0,0,997,1504.23Z" transform="translate(-974.83 -1494.42)"/><path class="a" d="M999.79,1501.63c.82,0,1.21.11,1.21,1.16a.7.7,0,0,1-.8.8h-.91c0,.58.19.61.6.61a6.11,6.11,0,0,0,1.06-.06v.56a4.24,4.24,0,0,1-1.47.17c-.73,0-1-.47-1-1.63C998.53,1501.87,998.88,1501.63,999.79,1501.63Zm.22,1.36a.21.21,0,0,0,.23-.24c0-.4,0-.47-.41-.47s-.55,0-.54.71Z" transform="translate(-974.83 -1494.42)"/><path class="a" d="M1001.41,1500.15h.76v3.43c0,.46.1.56.24.62a3.85,3.85,0,0,0,.37.13v.51h-.63c-.47,0-.74-.29-.74-1.13Z" transform="translate(-974.83 -1494.42)"/><path class="a" d="M995.71,1494.53a1.18,1.18,0,0,1,1,.45,2.81,2.81,0,0,1,.42,1.74,2.88,2.88,0,0,1-.42,1.76,1.2,1.2,0,0,1-1,.44,1.23,1.23,0,0,1-1-.49,3.94,3.94,0,0,1,0-3.46A1.18,1.18,0,0,1,995.71,1494.53Zm0,.68a.4.4,0,0,0-.26.1.61.61,0,0,0-.18.34,4.41,4.41,0,0,0-.09,1.07,4.58,4.58,0,0,0,.08,1,.7.7,0,0,0,.19.38.41.41,0,0,0,.26.09.44.44,0,0,0,.27-.09.61.61,0,0,0,.18-.34,4.45,4.45,0,0,0,.09-1.08,4.6,4.6,0,0,0-.08-1,.7.7,0,0,0-.19-.38A.45.45,0,0,0,995.71,1495.21Z" transform="translate(-974.83 -1494.42)"/><path class="a" d="M997.81,1498h.83v.59a2.07,2.07,0,0,1-.06.56.88.88,0,0,1-.24.37,1.15,1.15,0,0,1-.43.26l-.16-.34a.71.71,0,0,0,.35-.22.68.68,0,0,0,.11-.4h-.4Z" transform="translate(-974.83 -1494.42)"/><path class="a" d="M1001.43,1498.84h-.82v-3.1a2.83,2.83,0,0,1-1.06.62v-.74a2.72,2.72,0,0,0,.7-.4,1.52,1.52,0,0,0,.51-.69h.67Z" transform="translate(-974.83 -1494.42)"/><path class="a" d="M1002.67,1497.74l.82-.09a.73.73,0,0,0,.21.44.58.58,0,0,0,.4.17.56.56,0,0,0,.44-.21,1,1,0,0,0,.18-.63.86.86,0,0,0-.18-.6.59.59,0,0,0-.46-.19.84.84,0,0,0-.64.31l-.67-.1.43-2.23h2.17v.77h-1.55l-.13.73a1.14,1.14,0,0,1,.56-.14,1.21,1.21,0,0,1,.93.4,1.4,1.4,0,0,1,.38,1,1.6,1.6,0,0,1-.3.95,1.37,1.37,0,0,1-1.17.57,1.47,1.47,0,0,1-1-.32A1.34,1.34,0,0,1,1002.67,1497.74Z" transform="translate(-974.83 -1494.42)"/><path class="a" d="M1010.56,1494.65l-.17.81a1,1,0,0,0-.73-.24,1,1,0,0,0-.77.34,1.21,1.21,0,0,0-.24.48h1.61l-.09.46h-1.58v.17a1.48,1.48,0,0,0,0,.21h1.49l-.1.46h-1.33a1.17,1.17,0,0,0,.22.49,1,1,0,0,0,.76.34,1.18,1.18,0,0,0,.9-.34v.9a2,2,0,0,1-.89.19,1.83,1.83,0,0,1-1.4-.59,2,2,0,0,1-.5-1h-.43l.09-.46h.29v-.38h-.38l.09-.46h.35a2,2,0,0,1,.49-1,2.08,2.08,0,0,1,2.31-.42Z" transform="translate(-974.83 -1494.42)"/><path class="a" d="M1012,1498.92l.8-4.45h.46l-.8,4.45Z" transform="translate(-974.83 -1494.42)"/><path class="a" d="M1015.28,1496.68l-.56-.13a1.24,1.24,0,0,1,.33-.67.93.93,0,0,1,.68-.22,1.25,1.25,0,0,1,.62.13.73.73,0,0,1,.28.33,2.07,2.07,0,0,1,.09.74v1a4.23,4.23,0,0,0,0,.6,2.38,2.38,0,0,0,.11.42h-.61a1.36,1.36,0,0,1-.06-.24.84.84,0,0,1,0-.1,1.21,1.21,0,0,1-.34.31.75.75,0,0,1-.38.1.66.66,0,0,1-.57-.26,1,1,0,0,1-.21-.66,1.19,1.19,0,0,1,.09-.47.82.82,0,0,1,.27-.31,1.64,1.64,0,0,1,.49-.2,2.26,2.26,0,0,0,.6-.2v-.08a.51.51,0,0,0-.09-.34.46.46,0,0,0-.33-.1.36.36,0,0,0-.26.09A.7.7,0,0,0,1015.28,1496.68Zm.83.67a2.49,2.49,0,0,1-.38.12.85.85,0,0,0-.33.15.37.37,0,0,0-.12.29.53.53,0,0,0,.09.3.32.32,0,0,0,.25.12.49.49,0,0,0,.32-.14.69.69,0,0,0,.15-.28,3.06,3.06,0,0,0,0-.4Z" transform="translate(-974.83 -1494.42)"/><path class="a" d="M1017.31,1495.73h.57v.46a1.06,1.06,0,0,1,.31-.38.66.66,0,0,1,.42-.15.81.81,0,0,1,.69.43,2.08,2.08,0,0,1,.28,1.18,2.19,2.19,0,0,1-.28,1.21.81.81,0,0,1-.69.43.6.6,0,0,1-.35-.1,1.26,1.26,0,0,1-.34-.35V1500h-.61Zm.61,1.5a1.58,1.58,0,0,0,.15.78.45.45,0,0,0,.38.25.41.41,0,0,0,.36-.23,1.9,1.9,0,0,0,0-1.48.43.43,0,0,0-.37-.24.44.44,0,0,0-.37.23A1.31,1.31,0,0,0,1017.92,1497.23Z" transform="translate(-974.83 -1494.42)"/><path class="a" d="M1020.06,1495.73h.57v.46a1.06,1.06,0,0,1,.31-.38.64.64,0,0,1,.42-.15.81.81,0,0,1,.69.43,2.08,2.08,0,0,1,.28,1.18,2.19,2.19,0,0,1-.28,1.21.82.82,0,0,1-.7.43.64.64,0,0,1-.35-.1,1.41,1.41,0,0,1-.33-.35V1500h-.61Zm.61,1.5a1.58,1.58,0,0,0,.15.78.45.45,0,0,0,.38.25.41.41,0,0,0,.36-.23,2,2,0,0,0,0-1.48.43.43,0,0,0-.37-.24.44.44,0,0,0-.37.23A1.31,1.31,0,0,0,1020.67,1497.23Z" transform="translate(-974.83 -1494.42)"/><path class="a" d="M1024.17,1497.85l.62.14a1.43,1.43,0,0,1-.38.69.88.88,0,0,1-.64.23,1,1,0,0,1-.9-.53,2.26,2.26,0,0,1-.23-1.07,2,2,0,0,1,.31-1.21.9.9,0,0,1,.76-.44.92.92,0,0,1,.82.46,2.52,2.52,0,0,1,.29,1.4h-1.55a1.08,1.08,0,0,0,.15.57.44.44,0,0,0,.36.21.3.3,0,0,0,.24-.11A.63.63,0,0,0,1024.17,1497.85Zm0-.83a1,1,0,0,0-.14-.54.37.37,0,0,0-.65,0,.85.85,0,0,0-.13.53Z" transform="translate(-974.83 -1494.42)"/><path class="a" d="M1025.33,1498.84v-4.29h.61v4.29Z" transform="translate(-974.83 -1494.42)"/></svg>